<svg width="85" height="34" viewBox="0 0 85 34" fill="none" xmlns="http://www.w3.org/2000/svg">
<path d="M7.37935 33.2628V12.3185C7.37935 9.88755 6.77163 8.67207 5.55613 8.67207C4.89799 8.67207 4.3478 9.04123 3.90561 9.77958C3.46342 10.5179 3.24133 11.6769 3.23927 13.2564V33.2628H0V6.65136H2.71175L3.00481 9.46181H3.15288C3.42251 8.46966 3.93947 7.56214 4.65532 6.82414C4.94962 6.52954 5.29931 6.29609 5.68424 6.13724C6.06917 5.9784 6.48173 5.89731 6.89814 5.89864C7.31089 5.89379 7.71992 5.97683 8.09811 6.14225C8.47629 6.30768 8.81493 6.55169 9.09155 6.85807C9.70855 7.49976 10.1106 8.46125 10.2978 9.74256H10.4459C10.6796 8.67121 11.1987 7.68302 11.9483 6.88274C12.2528 6.57026 12.617 6.32215 13.0192 6.1531C13.4215 5.98405 13.8535 5.89752 14.2898 5.89864C15.4406 5.89864 16.3414 6.46316 17.0016 7.59845C17.6618 8.73374 17.9857 10.4305 17.9857 12.698V33.2473H14.7341V12.3031C14.7341 9.87211 14.1263 8.65663 12.9108 8.65663C12.2527 8.65663 11.7108 9.02579 11.285 9.76414C10.8593 10.5025 10.6454 11.6614 10.6433 13.241V33.2473L7.37935 33.2628Z" fill="#202361"/>
<path d="M41.3794 33.2628V12.3186C41.3794 9.88757 40.7387 8.67209 39.4574 8.67209C39.0818 8.67481 38.714 8.77919 38.3929 8.97419C38.0719 9.1692 37.8097 9.44753 37.6342 9.7796C37.1755 10.52 36.9452 11.679 36.9431 13.2564V33.2628H33.6915V6.65139H36.4033L36.7118 9.56058H36.8598C37.5817 7.12958 38.8949 5.91406 40.7994 5.91406C41.9841 5.91406 42.9209 6.48068 43.6099 7.61391C44.2989 8.74714 44.6433 10.447 44.6433 12.7135V33.2628H41.3794Z" fill="#202361"/>
<path d="M50.8412 2.70898V6.65165H53.2043V9.42817H50.8412V28.1018C50.8294 28.5494 50.8708 28.9967 50.9645 29.4345C51.0193 29.7136 51.1557 29.9702 51.3563 30.1719C51.5619 30.3543 51.8225 30.4628 52.0968 30.4804C52.4648 30.5164 52.8345 30.5329 53.2043 30.5297V33.3062C52.2983 33.3177 51.3928 33.2599 50.4956 33.1335C49.8765 33.0627 49.2886 32.8237 48.7958 32.4424C48.3557 32.0521 48.0457 31.5364 47.9073 30.9647C47.7056 30.134 47.6143 29.2803 47.6358 28.4257V9.45592H46.1581V6.67941H47.6358V2.73678L50.8412 2.70898Z" fill="#202361"/>
<path d="M54.9287 0H58.134V5.02547H54.9287V0ZM54.9287 6.65129H58.134V33.2627H54.9287V6.65129Z" fill="#202361"/>
<path d="M71.4367 27.151C71.4367 29.4483 70.977 31.1647 70.0577 32.2999C69.1384 33.4352 67.7912 34.0018 66.0163 33.9998C64.2434 33.9998 62.8881 33.4332 61.9503 32.2999C61.0124 31.1667 60.5445 29.4504 60.5466 27.151V12.6514C60.5466 10.3891 61.0145 8.69746 61.9503 7.57657C62.8861 6.45568 64.2414 5.89728 66.0163 5.90139C69.6299 5.90139 71.4367 8.1514 71.4367 12.6514V27.151ZM68.1789 12.2689C68.1789 10.9896 68.0062 10.0703 67.6606 9.51089C67.4877 9.23428 67.2427 9.01002 66.9519 8.86217C66.6611 8.71433 66.3355 8.64851 66.0101 8.67177C65.6715 8.64677 65.3324 8.71387 65.0288 8.86594C64.7252 9.01801 64.4683 9.24938 64.2856 9.53555C63.9246 10.1094 63.7427 11.0225 63.7427 12.2689V27.5922C63.7427 30.0232 64.482 31.2387 65.9608 31.2387C66.2962 31.2656 66.6326 31.1991 66.9326 31.0467C67.2326 30.8942 67.4846 30.6617 67.6606 30.3749C68.0062 29.8011 68.1789 28.8756 68.1789 27.5984V12.2689Z" fill="#202361"/>
<path d="M81.5371 33.2628V12.3186C81.5371 9.88757 80.8974 8.67209 79.6182 8.67209C79.2425 8.67447 78.8745 8.77874 78.5534 8.97378C78.2323 9.16882 77.9702 9.44732 77.7949 9.7796C77.3321 10.52 77.1018 11.679 77.1038 13.2564V33.2628H73.8522V6.65139H76.5609L76.8694 9.56058H77.0175C77.7393 7.12958 79.0536 5.91406 80.9601 5.91406C82.1407 5.91406 83.0765 6.48068 83.7675 7.61391C84.4586 8.74714 84.804 10.447 84.804 12.7135V33.2628H81.5371Z" fill="#202361"/>
<path d="M28.0737 22.922V27.0683C28.0737 28.3023 27.901 29.199 27.5554 29.7584C27.2099 30.3178 26.6433 30.5965 25.8556 30.5944C24.3789 30.5944 23.6395 29.419 23.6375 27.0683V20.1578H20.4352V26.6363C20.4352 28.8596 20.9031 30.5194 21.8389 31.6156C22.7747 32.7118 24.13 33.2599 25.9049 33.2599C27.6798 33.2599 29.027 32.7118 29.9463 31.6156C30.8657 30.5194 31.3253 28.8596 31.3253 26.6363V22.9189L28.0737 22.922Z" fill="#202361"/>
<path d="M31.3284 16.2552V12.5532C31.3284 10.3258 30.8688 8.66609 29.9494 7.57399C29.0301 6.48189 27.6829 5.9338 25.908 5.92969C24.1352 5.92969 22.7798 6.47778 21.842 7.57399C20.9041 8.6702 20.4362 10.3299 20.4383 12.5532V19.0318H23.6405V12.1213C23.6405 9.77052 24.3799 8.59515 25.8587 8.59515C26.6443 8.59515 27.211 8.87382 27.5585 9.43118C27.9061 9.98854 28.0788 10.8852 28.0768 12.1213V16.2707L31.3284 16.2552Z" fill="#202361"/>
<path d="M28.0552 18.2328H20.4414V20.5157H28.0552V18.2328Z" fill="#202361"/>
</svg>
