<svg width="120" height="120" viewBox="0 0 120 120" fill="none" xmlns="http://www.w3.org/2000/svg">
<g id="Add pp">
<circle id="Ellipse 2" cx="60" cy="60" r="60" fill="#F6F6FB"/>
<g id="vuesax/linear/gallery-import">
<g id="vuesax/linear/gallery-import_2">
<g id="gallery-import">
<path id="Vector" d="M55.4995 57C57.1564 57 58.4995 55.6569 58.4995 54C58.4995 52.3431 57.1564 51 55.4995 51C53.8427 51 52.4995 52.3431 52.4995 54C52.4995 55.6569 53.8427 57 55.4995 57Z" stroke="#242424" stroke-width="2.25" stroke-linecap="round" stroke-linejoin="round"/>
<path id="Vector_2" d="M61.5005 45H55.5005C48.0005 45 45.0005 48 45.0005 55.5V64.5C45.0005 72 48.0005 75 55.5005 75H64.5005C72.0005 75 75.0005 72 75.0005 64.5V57" stroke="#242424" stroke-width="2.25" stroke-linecap="round" stroke-linejoin="round"/>
<path id="Vector_3" d="M69 45V54L72 51" stroke="#242424" stroke-width="2.25" stroke-linecap="round" stroke-linejoin="round"/>
<path id="Vector_4" d="M68.9995 54L65.9995 51" stroke="#242424" stroke-width="2.25" stroke-linecap="round" stroke-linejoin="round"/>
<path id="Vector_5" d="M46.0044 70.4248L53.3994 65.4598C54.5844 64.6648 56.2944 64.7548 57.3594 65.6698L57.8544 66.1048C59.0244 67.1098 60.9144 67.1098 62.0844 66.1048L68.3244 60.7498C69.4944 59.7448 71.3844 59.7448 72.5544 60.7498L74.9994 62.8498" stroke="#242424" stroke-width="2.25" stroke-linecap="round" stroke-linejoin="round"/>
</g>
</g>
</g>
</g>
</svg>
