<svg width="16" height="17" viewBox="0 0 16 17" fill="none" xmlns="http://www.w3.org/2000/svg">
<path d="M9.68668 6.81328L6.31334 10.1866C5.88001 9.75328 5.61334 9.15995 5.61334 8.49995C5.61334 7.17995 6.68001 6.11328 8.00001 6.11328C8.66001 6.11328 9.25334 6.37995 9.68668 6.81328Z" stroke="#242424" stroke-linecap="round" stroke-linejoin="round"/>
<path d="M11.88 4.34633C10.7133 3.46633 9.37996 2.98633 7.99996 2.98633C5.64662 2.98633 3.45329 4.37299 1.92662 6.77299C1.32662 7.71299 1.32662 9.293 1.92662 10.233C2.45329 11.0597 3.06662 11.773 3.73329 12.3463" stroke="#242424" stroke-linecap="round" stroke-linejoin="round"/>
<path d="M5.61334 13.5204C6.37334 13.8404 7.18001 14.0138 8.00001 14.0138C10.3533 14.0138 12.5467 12.6271 14.0733 10.2271C14.6733 9.28711 14.6733 7.70711 14.0733 6.76711C13.8533 6.42044 13.6133 6.09378 13.3667 5.78711" stroke="#242424" stroke-linecap="round" stroke-linejoin="round"/>
<path d="M10.34 8.9668C10.1666 9.9068 9.39996 10.6735 8.45996 10.8468" stroke="#242424" stroke-linecap="round" stroke-linejoin="round"/>
<path d="M6.31331 10.1865L1.33331 15.1665" stroke="#242424" stroke-linecap="round" stroke-linejoin="round"/>
<path d="M14.6667 1.83301L9.68671 6.81301" stroke="#242424" stroke-linecap="round" stroke-linejoin="round"/>
</svg>
