<svg width="40" height="40" viewBox="0 0 40 40" fill="none" xmlns="http://www.w3.org/2000/svg">
<path d="M19.6666 36.3333C28.8333 36.3333 36.3333 28.8333 36.3333 19.6667C36.3333 10.5 28.8333 3 19.6666 3C10.5 3 2.99997 10.5 2.99997 19.6667C2.99997 28.8333 10.5 36.3333 19.6666 36.3333Z" fill="#A8E061" stroke="#A8E061" stroke-width="1.5" stroke-linecap="round" stroke-linejoin="round"/>
<path fill-rule="evenodd" clip-rule="evenodd" d="M18.7877 12.9939C18.7876 12.9941 18.7878 12.9937 18.7877 12.9939L17.4939 15.6013C17.3483 15.8993 17.1074 16.1505 16.8635 16.3328C16.6187 16.5157 16.3116 16.6735 15.9914 16.7283L15.9892 16.7287L13.6416 17.1217C13.6415 17.1217 13.6418 17.1217 13.6416 17.1217C13.0018 17.2292 12.8272 17.477 12.792 17.588C12.7566 17.6997 12.7568 18.0041 13.215 18.4658L15.0403 20.3051C15.2905 20.5572 15.4553 20.8912 15.5457 21.2095C15.6361 21.528 15.6711 21.8977 15.5944 22.2426L15.5935 22.2469L15.0709 24.5238C14.8781 25.3635 15.0843 25.6238 15.14 25.6647C15.1962 25.7061 15.5063 25.8246 16.2436 25.3837L18.449 24.0681C18.7712 23.8792 19.1536 23.8029 19.5011 23.8029C19.848 23.8029 20.2309 23.8789 20.552 24.0706C20.5519 24.0705 20.552 24.0706 20.552 24.0706L22.7521 25.383C23.4961 25.8259 23.8054 25.7072 23.8597 25.6674C23.9129 25.6283 24.1194 25.3702 23.9258 24.5234C23.9258 24.5234 23.9258 24.5235 23.9258 24.5234L23.4024 22.2427C23.3256 21.8977 23.3606 21.528 23.4511 21.2095C23.5415 20.8912 23.7063 20.5572 23.9565 20.3051L25.7818 18.4658L25.7833 18.4643C26.2445 18.0027 26.243 17.6993 26.2079 17.5892C26.1723 17.4776 25.9959 17.2294 25.3554 17.1218L23.0076 16.7287C22.6844 16.6744 22.3749 16.5172 22.1281 16.3337C21.8824 16.151 21.6412 15.8995 21.4955 15.6013L20.2005 12.9915C19.897 12.3766 19.6052 12.2855 19.4975 12.2855C19.3886 12.2855 19.0948 12.3785 18.7877 12.9939ZM21.3425 12.4185C20.9468 11.617 20.3151 11 19.4975 11C18.6808 11 18.0472 11.6158 17.6478 12.4165L17.6472 12.4177L16.3519 15.0284L16.3495 15.0331C16.3183 15.0973 16.2361 15.2012 16.1036 15.3002C15.9717 15.3987 15.8487 15.4486 15.7786 15.4608C15.7783 15.4608 15.7789 15.4607 15.7786 15.4608L13.4322 15.8536C12.5709 15.9983 11.8212 16.4255 11.5767 17.197C11.3324 17.9679 11.6966 18.7537 12.3129 19.3748L14.1382 21.2142C14.1972 21.2736 14.2716 21.3957 14.3192 21.5633C14.3664 21.7295 14.3685 21.8745 14.3499 21.9599L13.828 24.2341C13.828 24.2341 13.828 24.234 13.828 24.2341C13.6087 25.1891 13.6747 26.1787 14.3881 26.7032C15.1009 27.2274 16.0566 26.9903 16.8943 26.4894C16.8942 26.4895 16.8944 26.4893 16.8943 26.4894L19.0921 25.1784C19.1749 25.1304 19.3217 25.0885 19.5011 25.0885C19.6823 25.0885 19.8255 25.1311 19.9018 25.1767L22.1027 26.4896C22.9411 26.9886 23.8982 27.23 24.6112 26.7062C25.3253 26.1816 25.3874 25.19 25.1689 24.2346L24.6469 21.9599C24.6283 21.8745 24.6304 21.7295 24.6776 21.5633C24.7252 21.3957 24.7996 21.2736 24.8586 21.2142L26.6823 19.3764C26.6825 19.3762 26.6828 19.3759 26.683 19.3757C27.3033 18.7545 27.6687 17.968 27.4224 17.1958C27.1765 16.4248 26.4256 15.9982 25.5649 15.8537L23.217 15.4606C23.1428 15.4481 23.0177 15.3976 22.8855 15.2993C22.7529 15.2007 22.671 15.0971 22.6399 15.0331L21.3425 12.4185C21.3426 12.4186 21.3425 12.4183 21.3425 12.4185Z" fill="#292D32"/>
</svg>
