<svg width="18" height="25" viewBox="0 0 18 25" fill="none" xmlns="http://www.w3.org/2000/svg">
<path d="M17.1712 10.8682H16.5V10.8337H8.99999V14.167H13.7096C13.0225 16.1074 11.1762 17.5003 8.99999 17.5003C6.23874 17.5003 3.99999 15.2616 3.99999 12.5003C3.99999 9.73908 6.23874 7.50033 8.99999 7.50033C10.2746 7.50033 11.4342 7.98116 12.3171 8.76658L14.6742 6.40949C13.1858 5.02241 11.195 4.16699 8.99999 4.16699C4.39791 4.16699 0.666656 7.89824 0.666656 12.5003C0.666656 17.1024 4.39791 20.8337 8.99999 20.8337C13.6021 20.8337 17.3333 17.1024 17.3333 12.5003C17.3333 11.9416 17.2758 11.3962 17.1712 10.8682Z" fill="#FFC107"/>
<path d="M1.62749 8.62158L4.36541 10.6295C5.10624 8.79533 6.90041 7.50033 8.99999 7.50033C10.2746 7.50033 11.4342 7.98116 12.3171 8.76658L14.6742 6.40949C13.1858 5.02241 11.195 4.16699 8.99999 4.16699C5.79916 4.16699 3.02332 5.97408 1.62749 8.62158Z" fill="#FF3D00"/>
<path d="M8.99999 20.8337C11.1525 20.8337 13.1083 20.0099 14.5871 18.6703L12.0079 16.4878C11.1712 17.1216 10.1312 17.5003 8.99999 17.5003C6.83249 17.5003 4.99207 16.1182 4.29874 14.1895L1.58124 16.2832C2.96041 18.982 5.76124 20.8337 8.99999 20.8337Z" fill="#4CAF50"/>
<path d="M17.1712 10.8682H16.5V10.8337H8.99999V14.167H13.7096C13.3796 15.0991 12.78 15.9028 12.0067 16.4882L12.0079 16.4878L14.5871 18.6703C14.4046 18.8362 17.3333 16.667 17.3333 12.5003C17.3333 11.9416 17.2758 11.3962 17.1712 10.8682Z" fill="#1976D2"/>
</svg>
