<svg width="18" height="18" viewBox="0 0 18 18" fill="none" xmlns="http://www.w3.org/2000/svg">
  <path d="M13.4026 16.4028C13.1701 16.4028 12.9376 16.3428 12.7276 16.2153L9.72006 14.4303C9.40506 14.4228 9.09006 14.4003 8.79006 14.3553C8.58756 14.3253 8.41505 14.1903 8.34005 13.9953C8.26505 13.8003 8.30256 13.5903 8.43756 13.4328C8.93256 12.8553 9.18756 12.1653 9.18756 11.4303C9.18756 9.6153 7.59006 8.13779 5.62506 8.13779C4.89006 8.13779 4.18505 8.34032 3.59255 8.73032C3.42755 8.83532 3.22506 8.85031 3.04506 8.76781C2.87256 8.68531 2.74506 8.52029 2.72256 8.32529C2.70006 8.11529 2.68506 7.90531 2.68506 7.68781C2.68506 3.96781 5.91006 0.945312 9.87006 0.945312C13.8301 0.945312 17.0551 3.96781 17.0551 7.68781C17.0551 9.72781 16.1101 11.6028 14.4451 12.8853L14.7001 14.9253C14.7601 15.4353 14.5351 15.9153 14.1076 16.1928C13.8976 16.3278 13.6501 16.4028 13.4026 16.4028ZM9.86255 13.2978C9.96755 13.2903 10.0726 13.3203 10.1626 13.3803L13.3051 15.2478C13.3876 15.3003 13.4551 15.2778 13.5001 15.2478C13.5376 15.2253 13.5976 15.1653 13.5826 15.0603L13.2901 12.6903C13.2676 12.4803 13.3576 12.2778 13.5226 12.1578C15.0526 11.0853 15.9301 9.45029 15.9301 7.67279C15.9301 4.57529 13.2151 2.0553 9.87006 2.0553C6.65256 2.0553 4.01255 4.39533 3.81755 7.33533C4.38005 7.11783 4.98756 6.99782 5.61756 6.99782C8.20506 6.99782 10.3051 8.97778 10.3051 11.4153C10.3126 12.0753 10.1551 12.7128 9.86255 13.2978Z" fill="#F6F6FB"/>
  <path d="M3.43483 17.0633C3.23983 17.0633 3.05233 17.0109 2.87983 16.8984C2.54233 16.6809 2.36233 16.3059 2.40733 15.9084L2.55733 14.7533C1.54483 13.9283 0.944824 12.7058 0.944824 11.4233C0.944824 9.96082 1.70983 8.59584 2.99233 7.77834C3.76483 7.27584 4.67982 7.00586 5.63232 7.00586C8.21982 7.00586 10.3198 8.98582 10.3198 11.4233C10.3198 12.4133 9.95982 13.3883 9.29982 14.1608C8.45232 15.1883 7.18483 15.7883 5.78983 15.8333L3.95983 16.9208C3.79483 17.0183 3.61483 17.0633 3.43483 17.0633ZM5.62483 8.13086C4.88983 8.13086 4.18482 8.33334 3.59232 8.72334C2.63232 9.33834 2.06233 10.3433 2.06233 11.4233C2.06233 12.4658 2.57233 13.4184 3.47233 14.0334C3.64483 14.1534 3.73483 14.3558 3.71233 14.5658L3.54733 15.8483L5.33982 14.7834C5.42982 14.7309 5.52733 14.7008 5.62483 14.7008C6.72733 14.7008 7.76983 14.2284 8.42983 13.4259C8.92483 12.8409 9.18733 12.1508 9.18733 11.4158C9.18733 9.60832 7.58983 8.13086 5.62483 8.13086Z" fill="#F6F6FB"/>
</svg>
