<svg width="72" height="72" viewBox="0 0 72 72" fill="none" xmlns="http://www.w3.org/2000/svg">
<g id="vuesax/linear/messages">
<g id="messages">
<path id="Vector" d="M51 27C51 38.61 40.92 48 28.5 48L25.71 51.36L24.06 53.3401C22.65 55.0201 19.95 54.66 19.02 52.65L15 43.7999C9.54 39.9599 6 33.87 6 27C6 15.39 16.08 6 28.5 6C37.56 6 45.39 11.01 48.9 18.21C50.25 20.88 51 23.85 51 27Z" stroke="#F6F6FB" stroke-width="1.5" stroke-linecap="round" stroke-linejoin="round"/>
<path id="Vector_2" d="M66 38.5809C66 45.4509 62.46 51.541 57 55.381L52.98 64.2308C52.05 66.2408 49.35 66.631 47.94 64.921L43.5 59.5809C36.24 59.5809 29.76 56.3709 25.71 51.3609L28.5 48.0009C40.92 48.0009 51 38.6109 51 27.0009C51 23.8509 50.25 20.8809 48.9 18.2109C58.71 20.4609 66 28.7409 66 38.5809Z" stroke="#F6F6FB" stroke-width="1.5" stroke-linecap="round" stroke-linejoin="round"/>
<path id="Vector_3" d="M21 27H36" stroke="#F6F6FB" stroke-width="1.5" stroke-linecap="round" stroke-linejoin="round"/>
</g>
</g>
</svg>
