<svg width="18" height="18" viewBox="0 0 18 18" fill="none" xmlns="http://www.w3.org/2000/svg">
<path d="M12 17.0625H2.25C1.53 17.0625 0.9375 16.47 0.9375 15.75V6C0.9375 2.685 2.685 0.9375 6 0.9375H12C15.315 0.9375 17.0625 2.685 17.0625 6V12C17.0625 15.315 15.315 17.0625 12 17.0625ZM6 2.0625C3.315 2.0625 2.0625 3.315 2.0625 6V15.75C2.0625 15.855 2.145 15.9375 2.25 15.9375H12C14.685 15.9375 15.9375 14.685 15.9375 12V6C15.9375 3.315 14.685 2.0625 12 2.0625H6Z" fill="#242424"/>
<path d="M5.96231 13.3133C5.60981 13.3133 5.28731 13.1858 5.04731 12.9533C4.76231 12.6683 4.63479 12.2633 4.70229 11.8283L4.91229 10.3433C4.95729 10.0208 5.1598 9.60833 5.3923 9.37583L9.2848 5.48333C10.6198 4.14833 11.7823 4.74833 12.5173 5.48333C13.0948 6.06083 13.3573 6.66833 13.2973 7.27583C13.2523 7.77083 12.9898 8.23583 12.5173 8.71583L8.6248 12.6083C8.3923 12.8408 7.98729 13.0433 7.65729 13.0958L6.17231 13.3058C6.10481 13.3058 6.02981 13.3133 5.96231 13.3133ZM10.8973 5.81333C10.6198 5.81333 10.3723 5.99333 10.0873 6.27083L6.19481 10.1633C6.13481 10.2233 6.04481 10.4108 6.02981 10.4933L5.81981 11.9783C5.81231 12.0533 5.81979 12.1208 5.84979 12.1508C5.87979 12.1808 5.9473 12.1883 6.0223 12.1808L7.50731 11.9708C7.59731 11.9558 7.77731 11.8658 7.83731 11.8058L11.7298 7.91333C12.0148 7.62833 12.1648 7.38083 12.1873 7.15583C12.2098 6.90083 12.0598 6.60083 11.7298 6.27083C11.3998 5.95583 11.1373 5.81333 10.8973 5.81333Z" fill="#242424"/>
<path d="M11.5649 9.43528C11.5124 9.43528 11.4599 9.42778 11.4149 9.41278C10.0574 9.03028 8.96987 7.95028 8.58737 6.58528C8.50487 6.28528 8.67736 5.97778 8.97736 5.88778C9.27736 5.80528 9.58487 5.97778 9.66737 6.27778C9.94487 7.26028 10.7324 8.04778 11.7149 8.32528C12.0149 8.40778 12.1874 8.72278 12.1049 9.02278C12.0374 9.27028 11.8124 9.43528 11.5649 9.43528Z" fill="#242424"/>
</svg>
