<svg width="18" height="18" viewBox="0 0 18 18" fill="none" xmlns="http://www.w3.org/2000/svg">
  <path d="M9 12.1875C7.035 12.1875 5.4375 10.59 5.4375 8.625V4.5C5.4375 2.535 7.035 0.9375 9 0.9375C10.965 0.9375 12.5625 2.535 12.5625 4.5V8.625C12.5625 10.59 10.965 12.1875 9 12.1875ZM9 2.0625C7.6575 2.0625 6.5625 3.1575 6.5625 4.5V8.625C6.5625 9.9675 7.6575 11.0625 9 11.0625C10.3425 11.0625 11.4375 9.9675 11.4375 8.625V4.5C11.4375 3.1575 10.3425 2.0625 9 2.0625Z" fill="#202361"/>
  <path d="M9.0002 14.8133C5.52769 14.8133 2.7002 11.9858 2.7002 8.51328V7.23828C2.7002 6.93078 2.9552 6.67578 3.2627 6.67578C3.5702 6.67578 3.8252 6.93078 3.8252 7.23828V8.51328C3.8252 11.3633 6.1502 13.6883 9.0002 13.6883C11.8502 13.6883 14.1752 11.3633 14.1752 8.51328V7.23828C14.1752 6.93078 14.4302 6.67578 14.7377 6.67578C15.0452 6.67578 15.3002 6.93078 15.3002 7.23828V8.51328C15.3002 11.9858 12.4727 14.8133 9.0002 14.8133Z" fill="#202361"/>
  <path d="M10.0424 5.38523C9.98241 5.38523 9.91491 5.37773 9.84741 5.35523C9.29991 5.15273 8.69991 5.15273 8.15241 5.35523C7.85991 5.46023 7.53741 5.31023 7.43241 5.01773C7.32741 4.72523 7.47741 4.40273 7.76991 4.29773C8.56491 4.01273 9.44241 4.01273 10.2374 4.29773C10.5299 4.40273 10.6799 4.72523 10.5749 5.01773C10.4849 5.24273 10.2674 5.38523 10.0424 5.38523Z" fill="#202361"/>
  <path d="M9.60006 6.97523C9.54756 6.97523 9.50256 6.96773 9.45006 6.95273C9.15006 6.87023 8.84256 6.87023 8.54256 6.95273C8.24256 7.03523 7.93506 6.85523 7.85256 6.55523C7.77006 6.26273 7.95006 5.95523 8.25006 5.87273C8.73756 5.73773 9.26256 5.73773 9.75006 5.87273C10.0501 5.95523 10.2301 6.26273 10.1476 6.56273C10.0801 6.81023 9.84756 6.97523 9.60006 6.97523Z" fill="#202361"/>
  <path d="M9 17.0625C8.6925 17.0625 8.4375 16.8075 8.4375 16.5V14.25C8.4375 13.9425 8.6925 13.6875 9 13.6875C9.3075 13.6875 9.5625 13.9425 9.5625 14.25V16.5C9.5625 16.8075 9.3075 17.0625 9 17.0625Z" fill="#202361"/>
</svg>
